<svg width="188" height="41" viewBox="0 0 188 41" fill="none" xmlns="http://www.w3.org/2000/svg">
<line x1="48.1635" y1="33.2283" x2="66.9635" y2="33.2389" stroke="#FF5000" stroke-width="0.969072" stroke-linecap="round"/>
<path d="M80.2396 33.2477C80.2396 33.0838 80.1991 32.9215 80.1206 32.7705C80.042 32.6195 79.927 32.4828 79.7824 32.3686C79.6377 32.2544 79.4664 32.165 79.2784 32.1056C79.0905 32.0462 78.8898 32.0182 78.6883 32.023L75.103 32.1086L72.4893 27.7125C72.2797 27.3592 71.8385 27.134 71.3558 27.134C71.2567 27.134 71.1587 27.1511 71.0684 27.1842C70.978 27.2173 70.8973 27.2656 70.8316 27.3259C70.7659 27.3862 70.7166 27.4572 70.6871 27.5341C70.6576 27.611 70.6485 27.6922 70.6603 27.7722L71.3126 32.199L68.4636 32.2667L68.0928 31.4414C68.0241 31.2887 67.8994 31.1567 67.7355 31.0635C67.5716 30.9703 67.3764 30.9202 67.1764 30.9201C67.0868 30.9201 66.9981 30.9345 66.9153 30.9624C66.8326 30.9903 66.7574 31.0312 66.6941 31.0828C66.6307 31.1343 66.5805 31.1955 66.5463 31.2629C66.5121 31.3302 66.4945 31.4024 66.4946 31.4753V32.3837L65.8817 32.4877C65.667 32.524 65.4743 32.6194 65.3359 32.7578C65.1976 32.8962 65.1221 33.0691 65.1221 33.2474C65.1221 33.4258 65.1976 33.5987 65.3359 33.7371C65.4743 33.8754 65.667 33.9708 65.8817 34.0072L66.4946 34.1106V35.0202C66.4946 35.3033 66.7542 35.5359 67.0909 35.5704L67.1764 35.5747C67.3762 35.5746 67.5711 35.5246 67.7349 35.4315C67.8986 35.3383 68.0233 35.2066 68.0921 35.0541L68.4644 34.2294L71.3028 34.2971L70.6603 38.6568C70.6587 38.6681 70.6574 38.6794 70.6566 38.6907L70.655 38.7245C70.655 39.039 70.9691 39.2944 71.3558 39.2944C71.7984 39.2944 72.2056 39.1055 72.4326 38.8021L72.4893 38.7159L75.0644 34.3863L78.6891 34.4725C79.0885 34.4819 79.4761 34.3619 79.7667 34.139C80.0573 33.916 80.2272 33.6082 80.2388 33.2834L80.2396 33.2477Z" fill="#FF5000"/>
<path d="M56.0735 21V10.1855H58.5372L58.7771 11.6464C59.1259 11.1231 59.5838 10.7088 60.1507 10.4036C60.7321 10.0838 61.4007 9.9239 62.1566 9.9239C63.8282 9.9239 65.0128 10.5707 65.7105 11.8644C66.103 11.2684 66.6263 10.796 67.2804 10.4472C67.949 10.0983 68.6758 9.9239 69.4607 9.9239C70.8707 9.9239 71.9536 10.3454 72.7094 11.1885C73.4653 12.0316 73.8432 13.2671 73.8432 14.8951V21H71.0524V15.1567C71.0524 14.2264 70.8707 13.5142 70.5073 13.02C70.1584 12.5258 69.6133 12.2787 68.872 12.2787C68.1162 12.2787 67.5057 12.5548 67.0405 13.1072C66.5899 13.6595 66.3646 14.4299 66.3646 15.4183V21H63.5738V15.1567C63.5738 14.2264 63.3921 13.5142 63.0287 13.02C62.6653 12.5258 62.1057 12.2787 61.3499 12.2787C60.6086 12.2787 60.0053 12.5548 59.5402 13.1072C59.0896 13.6595 58.8643 14.4299 58.8643 15.4183V21H56.0735ZM77.4826 25.7967L79.99 20.2805H79.3359L75.1279 10.1855H78.1585L81.1892 17.7949L84.3507 10.1855H87.3159L80.4479 25.7967H77.4826ZM93.0778 21.2616C92.1185 21.2616 91.2754 21.109 90.5486 20.8038C89.8219 20.484 89.2404 20.0479 88.8044 19.4956C88.3683 18.9432 88.1067 18.3037 88.0194 17.5769H90.8321C90.9193 17.9984 91.1519 18.3618 91.5298 18.667C91.9222 18.9578 92.4237 19.1031 93.0342 19.1031C93.6447 19.1031 94.088 18.9796 94.3642 18.7325C94.6549 18.4853 94.8003 18.2019 94.8003 17.8821C94.8003 17.417 94.5968 17.1045 94.1898 16.9446C93.7828 16.7702 93.2159 16.603 92.4891 16.4431C92.024 16.3414 91.5516 16.2178 91.0719 16.0724C90.5922 15.9271 90.1489 15.7454 89.7419 15.5274C89.3495 15.2948 89.0297 15.0041 88.7826 14.6552C88.5355 14.2918 88.4119 13.8485 88.4119 13.3252C88.4119 12.3659 88.7898 11.5592 89.5457 10.9051C90.3161 10.251 91.3917 9.9239 92.7726 9.9239C94.0517 9.9239 95.0692 10.2219 95.825 10.8178C96.5954 11.4138 97.0533 12.2351 97.1987 13.2816H94.5605C94.4006 12.4822 93.7973 12.0824 92.7508 12.0824C92.2275 12.0824 91.8205 12.1842 91.5298 12.3877C91.2536 12.5912 91.1155 12.8456 91.1155 13.1508C91.1155 13.4706 91.3263 13.725 91.7478 13.9139C92.1694 14.1029 92.729 14.2773 93.4267 14.4372C94.1825 14.6116 94.873 14.8079 95.498 15.0259C96.1376 15.2294 96.6463 15.5419 97.0242 15.9634C97.4022 16.3704 97.5911 16.9591 97.5911 17.7295C97.6057 18.3981 97.4312 19.0014 97.0678 19.5392C96.7044 20.077 96.1812 20.4985 95.498 20.8038C94.8148 21.109 94.0081 21.2616 93.0778 21.2616ZM101.568 8.50669C101.059 8.50669 100.638 8.35406 100.303 8.04882C99.9835 7.74357 99.8236 7.35838 99.8236 6.89324C99.8236 6.4281 99.9835 6.05018 100.303 5.75946C100.638 5.45422 101.059 5.3016 101.568 5.3016C102.077 5.3016 102.491 5.45422 102.811 5.75946C103.145 6.05018 103.312 6.4281 103.312 6.89324C103.312 7.35838 103.145 7.74357 102.811 8.04882C102.491 8.35406 102.077 8.50669 101.568 8.50669ZM100.172 21V10.1855H102.963V21H100.172ZM105.876 21V10.1855H108.34L108.58 11.6464C108.929 11.1231 109.387 10.7088 109.953 10.4036C110.535 10.0838 111.203 9.9239 111.959 9.9239C113.631 9.9239 114.816 10.5707 115.513 11.8644C115.906 11.2684 116.429 10.796 117.083 10.4472C117.752 10.0983 118.479 9.9239 119.263 9.9239C120.673 9.9239 121.756 10.3454 122.512 11.1885C123.268 12.0316 123.646 13.2671 123.646 14.8951V21H120.855V15.1567C120.855 14.2264 120.673 13.5142 120.31 13.02C119.961 12.5258 119.416 12.2787 118.675 12.2787C117.919 12.2787 117.308 12.5548 116.843 13.1072C116.393 13.6595 116.167 14.4299 116.167 15.4183V21H113.377V15.1567C113.377 14.2264 113.195 13.5142 112.831 13.02C112.468 12.5258 111.908 12.2787 111.153 12.2787C110.411 12.2787 109.808 12.5548 109.343 13.1072C108.892 13.6595 108.667 14.4299 108.667 15.4183V21H105.876ZM131.114 21C129.98 21 129.072 20.7238 128.389 20.1715C127.706 19.6191 127.364 18.638 127.364 17.228V12.5185H125.511V10.1855H127.364L127.691 7.2857H130.155V10.1855H133.076V12.5185H130.155V17.2498C130.155 17.7731 130.264 18.1365 130.482 18.34C130.714 18.529 131.107 18.6234 131.659 18.6234H133.011V21H131.114ZM135.473 21V10.1855H137.958L138.22 12.2133C138.612 11.5155 139.143 10.9632 139.811 10.5562C140.495 10.1347 141.294 9.9239 142.21 9.9239V12.8674H141.425C140.814 12.8674 140.269 12.9618 139.79 13.1508C139.31 13.3398 138.932 13.6668 138.656 14.1319C138.394 14.5971 138.263 15.2439 138.263 16.0724V21H135.473ZM147.846 21.2616C146.915 21.2616 146.152 21.1163 145.556 20.8256C144.96 20.5203 144.517 20.1206 144.226 19.6264C143.936 19.1322 143.79 18.5871 143.79 17.9911C143.79 16.9882 144.183 16.1742 144.968 15.5492C145.752 14.9241 146.93 14.6116 148.5 14.6116H151.247V14.35C151.247 13.6087 151.036 13.0636 150.615 12.7147C150.193 12.3659 149.67 12.1915 149.045 12.1915C148.478 12.1915 147.984 12.3295 147.562 12.6057C147.141 12.8674 146.879 13.2598 146.777 13.7831H144.052C144.124 12.9982 144.386 12.315 144.837 11.7336C145.302 11.1522 145.898 10.7088 146.625 10.4036C147.351 10.0838 148.165 9.9239 149.067 9.9239C150.607 9.9239 151.821 10.3091 152.708 11.0795C153.594 11.8499 154.038 12.94 154.038 14.35V21H151.661L151.4 19.2557C151.08 19.8372 150.629 20.3168 150.048 20.6948C149.481 21.0727 148.747 21.2616 147.846 21.2616ZM148.478 19.0813C149.277 19.0813 149.895 18.8197 150.331 18.2964C150.782 17.7731 151.065 17.1263 151.182 16.3559H148.805C148.064 16.3559 147.533 16.494 147.213 16.7702C146.894 17.0318 146.734 17.3588 146.734 17.7513C146.734 18.1728 146.894 18.4999 147.213 18.7325C147.533 18.965 147.955 19.0813 148.478 19.0813ZM159.303 21L155.335 10.1855H158.257L161.004 18.3618L163.751 10.1855H166.673L162.683 21H159.303ZM173.155 21.2616C172.065 21.2616 171.099 21.0291 170.256 20.5639C169.412 20.0988 168.751 19.4447 168.271 18.6016C167.792 17.7586 167.552 16.7847 167.552 15.68C167.552 14.5607 167.784 13.5651 168.25 12.6929C168.729 11.8208 169.383 11.1449 170.212 10.6652C171.055 10.171 172.043 9.9239 173.177 9.9239C174.238 9.9239 175.176 10.1565 175.99 10.6216C176.804 11.0867 177.436 11.7263 177.887 12.5403C178.352 13.3398 178.584 14.2337 178.584 15.2221C178.584 15.382 178.577 15.5492 178.563 15.7236C178.563 15.898 178.555 16.0797 178.541 16.2687H170.321C170.379 17.1117 170.67 17.7731 171.193 18.2528C171.731 18.7325 172.378 18.9723 173.134 18.9723C173.7 18.9723 174.173 18.8487 174.551 18.6016C174.943 18.34 175.234 18.0057 175.423 17.5987H178.257C178.054 18.2819 177.712 18.9069 177.233 19.4738C176.767 20.0261 176.186 20.4622 175.488 20.782C174.805 21.1017 174.027 21.2616 173.155 21.2616ZM173.177 12.1915C172.494 12.1915 171.891 12.3877 171.367 12.7801C170.844 13.1581 170.51 13.7395 170.365 14.5244H175.75C175.706 13.8122 175.445 13.2453 174.965 12.8237C174.485 12.4022 173.889 12.1915 173.177 12.1915ZM180.932 21V5.3016H183.722V21H180.932Z" fill="#FF5000"/>
<path d="M85.0923 37.9227C84.378 37.9227 83.7504 37.7666 83.2095 37.4546C82.6755 37.1356 82.256 36.6918 81.9508 36.1231C81.6526 35.5545 81.5035 34.8991 81.5035 34.1571C81.5035 33.4151 81.6526 32.7632 81.9508 32.2015C82.256 31.6328 82.6755 31.189 83.2095 30.87C83.7504 30.551 84.378 30.3915 85.0923 30.3915C85.8135 30.3915 86.4411 30.551 86.9751 30.87C87.516 31.189 87.9355 31.6328 88.2337 32.2015C88.5319 32.7632 88.681 33.4151 88.681 34.1571C88.681 34.8991 88.5319 35.5545 88.2337 36.1231C87.9355 36.6918 87.516 37.1356 86.9751 37.4546C86.4411 37.7666 85.8135 37.9227 85.0923 37.9227ZM85.0923 37.1529C85.6263 37.1529 86.0944 37.035 86.4966 36.7992C86.9057 36.5565 87.2213 36.2133 87.4432 35.7694C87.672 35.3187 87.7864 34.7812 87.7864 34.1571C87.7864 33.533 87.672 32.999 87.4432 32.5552C87.2213 32.1113 86.9057 31.7715 86.4966 31.5358C86.0944 31.293 85.6263 31.1717 85.0923 31.1717C84.5583 31.1717 84.0867 31.293 83.6776 31.5358C83.2754 31.7715 82.9599 32.1113 82.731 32.5552C82.5091 32.999 82.3981 33.533 82.3981 34.1571C82.3981 34.7812 82.5091 35.3187 82.731 35.7694C82.9599 36.2133 83.2754 36.5565 83.6776 36.7992C84.0867 37.035 84.5583 37.1529 85.0923 37.1529ZM92.6425 37.7979V32.6384H93.433L93.4954 33.3873C93.6619 33.11 93.8838 32.895 94.1612 32.7424C94.4386 32.5898 94.7506 32.5136 95.0974 32.5136C95.5065 32.5136 95.8567 32.5968 96.148 32.7632C96.4462 32.9296 96.675 33.1828 96.8345 33.5226C97.0148 33.2105 97.261 32.9643 97.5731 32.784C97.8921 32.6037 98.2353 32.5136 98.6029 32.5136C99.2201 32.5136 99.7125 32.7008 100.08 33.0753C100.448 33.4428 100.631 34.0115 100.631 34.7812V37.7979H99.7679V34.8748C99.7679 34.3409 99.6604 33.9387 99.4455 33.6682C99.2305 33.3977 98.9219 33.2625 98.5197 33.2625C98.1036 33.2625 97.7569 33.4255 97.4795 33.7514C97.209 34.0704 97.0738 34.5281 97.0738 35.1245V37.7979H96.2V34.8748C96.2 34.3409 96.0925 33.9387 95.8775 33.6682C95.6626 33.3977 95.354 33.2625 94.9517 33.2625C94.5426 33.2625 94.1993 33.4255 93.9219 33.7514C93.6515 34.0704 93.5162 34.5281 93.5162 35.1245V37.7979H92.6425ZM103.83 37.9227C103.22 37.9227 102.735 37.7389 102.374 37.3714C102.013 36.9969 101.833 36.4248 101.833 35.655V32.6384H102.707V35.5614C102.707 36.6363 103.147 37.1737 104.028 37.1737C104.479 37.1737 104.85 37.0142 105.141 36.6952C105.439 36.3693 105.588 35.9081 105.588 35.3117V32.6384H106.462V37.7979H105.671L105.609 36.8721C105.45 37.198 105.21 37.4546 104.891 37.6418C104.579 37.8291 104.226 37.9227 103.83 37.9227ZM107.9 37.7979V32.6384H108.691L108.743 33.5642C108.909 33.2382 109.149 32.9817 109.461 32.7944C109.773 32.6072 110.126 32.5136 110.522 32.5136C111.132 32.5136 111.617 32.7008 111.978 33.0753C112.345 33.4428 112.529 34.0115 112.529 34.7812V37.7979H111.655V34.8748C111.655 33.8 111.212 33.2625 110.324 33.2625C109.88 33.2625 109.509 33.4255 109.211 33.7514C108.92 34.0704 108.774 34.5281 108.774 35.1245V37.7979H107.9ZM116.194 37.9227C115.68 37.9227 115.23 37.8048 114.841 37.569C114.46 37.3332 114.162 37.0108 113.947 36.6016C113.739 36.1925 113.635 35.7278 113.635 35.2077C113.635 34.6876 113.742 34.2264 113.957 33.8242C114.172 33.4151 114.47 33.0961 114.852 32.8672C115.233 32.6315 115.684 32.5136 116.204 32.5136C116.627 32.5136 117.001 32.6002 117.327 32.7736C117.653 32.947 117.906 33.1897 118.087 33.5018V30.3083H118.961V37.7979H118.17L118.087 36.9449C117.92 37.1945 117.681 37.4199 117.369 37.621C117.057 37.8221 116.665 37.9227 116.194 37.9227ZM116.287 37.1633C116.634 37.1633 116.939 37.0836 117.203 36.9241C117.473 36.7576 117.681 36.5288 117.827 36.2375C117.979 35.9463 118.056 35.6065 118.056 35.2181C118.056 34.8298 117.979 34.49 117.827 34.1987C117.681 33.9074 117.473 33.6821 117.203 33.5226C116.939 33.3561 116.634 33.2729 116.287 33.2729C115.947 33.2729 115.642 33.3561 115.372 33.5226C115.108 33.6821 114.9 33.9074 114.748 34.1987C114.602 34.49 114.529 34.8298 114.529 35.2181C114.529 35.6065 114.602 35.9463 114.748 36.2375C114.9 36.5288 115.108 36.7576 115.372 36.9241C115.642 37.0836 115.947 37.1633 116.287 37.1633ZM122.736 37.9227C122.25 37.9227 121.813 37.8117 121.425 37.5898C121.037 37.3679 120.728 37.0558 120.499 36.6536C120.277 36.2445 120.166 35.766 120.166 35.2181C120.166 34.6703 120.281 34.1952 120.51 33.793C120.739 33.3839 121.047 33.0683 121.436 32.8464C121.831 32.6245 122.271 32.5136 122.757 32.5136C123.242 32.5136 123.679 32.6245 124.067 32.8464C124.456 33.0683 124.761 33.3839 124.983 33.793C125.212 34.1952 125.326 34.6703 125.326 35.2181C125.326 35.766 125.212 36.2445 124.983 36.6536C124.754 37.0558 124.442 37.3679 124.046 37.5898C123.658 37.8117 123.221 37.9227 122.736 37.9227ZM122.736 37.1737C123.034 37.1737 123.311 37.1009 123.568 36.9553C123.825 36.8096 124.033 36.5912 124.192 36.2999C124.352 36.0087 124.431 35.6481 124.431 35.2181C124.431 34.7882 124.352 34.4276 124.192 34.1363C124.04 33.845 123.835 33.6266 123.578 33.481C123.322 33.3353 123.048 33.2625 122.757 33.2625C122.458 33.2625 122.181 33.3353 121.924 33.481C121.668 33.6266 121.46 33.845 121.3 34.1363C121.141 34.4276 121.061 34.7882 121.061 35.2181C121.061 35.6481 121.141 36.0087 121.3 36.2999C121.46 36.5912 121.664 36.8096 121.914 36.9553C122.171 37.1009 122.445 37.1737 122.736 37.1737ZM129.294 37.7979V32.6384H130.084L130.136 33.5642C130.303 33.2382 130.542 32.9817 130.854 32.7944C131.166 32.6072 131.52 32.5136 131.915 32.5136C132.525 32.5136 133.011 32.7008 133.371 33.0753C133.739 33.4428 133.923 34.0115 133.923 34.7812V37.7979H133.049V34.8748C133.049 33.8 132.605 33.2625 131.717 33.2625C131.274 33.2625 130.903 33.4255 130.604 33.7514C130.313 34.0704 130.168 34.5281 130.168 35.1245V37.7979H129.294ZM137.597 37.9227C137.112 37.9227 136.675 37.8117 136.287 37.5898C135.898 37.3679 135.59 37.0558 135.361 36.6536C135.139 36.2445 135.028 35.766 135.028 35.2181C135.028 34.6703 135.143 34.1952 135.371 33.793C135.6 33.3839 135.909 33.0683 136.297 32.8464C136.692 32.6245 137.133 32.5136 137.618 32.5136C138.104 32.5136 138.541 32.6245 138.929 32.8464C139.317 33.0683 139.622 33.3839 139.844 33.793C140.073 34.1952 140.188 34.6703 140.188 35.2181C140.188 35.766 140.073 36.2445 139.844 36.6536C139.615 37.0558 139.303 37.3679 138.908 37.5898C138.52 37.8117 138.083 37.9227 137.597 37.9227ZM137.597 37.1737C137.896 37.1737 138.173 37.1009 138.43 36.9553C138.686 36.8096 138.894 36.5912 139.054 36.2999C139.213 36.0087 139.293 35.6481 139.293 35.2181C139.293 34.7882 139.213 34.4276 139.054 34.1363C138.901 33.845 138.697 33.6266 138.44 33.481C138.183 33.3353 137.91 33.2625 137.618 33.2625C137.32 33.2625 137.043 33.3353 136.786 33.481C136.529 33.6266 136.321 33.845 136.162 34.1363C136.002 34.4276 135.923 34.7882 135.923 35.2181C135.923 35.6481 136.002 36.0087 136.162 36.2999C136.321 36.5912 136.526 36.8096 136.776 36.9553C137.032 37.1009 137.306 37.1737 137.597 37.1737ZM146.132 37.9227C145.515 37.9227 145.001 37.7666 144.592 37.4546C144.183 37.1425 143.944 36.7195 143.875 36.1855H144.769C144.825 36.456 144.967 36.6918 145.196 36.8929C145.431 37.087 145.747 37.1841 146.142 37.1841C146.51 37.1841 146.78 37.1078 146.954 36.9553C147.127 36.7958 147.214 36.6085 147.214 36.3936C147.214 36.0815 147.099 35.8735 146.87 35.7694C146.648 35.6654 146.333 35.5718 145.924 35.4886C145.646 35.4331 145.369 35.3533 145.092 35.2493C144.814 35.1453 144.582 34.9997 144.395 34.8124C144.207 34.6183 144.114 34.3651 144.114 34.0531C144.114 33.6023 144.28 33.2348 144.613 32.9505C144.953 32.6592 145.411 32.5136 145.986 32.5136C146.534 32.5136 146.981 32.6523 147.328 32.9296C147.682 33.2001 147.886 33.5884 147.942 34.0947H147.078C147.044 33.8312 146.929 33.6266 146.735 33.481C146.548 33.3284 146.295 33.2521 145.976 33.2521C145.664 33.2521 145.421 33.318 145.248 33.4498C145.081 33.5815 144.998 33.7549 144.998 33.9699C144.998 34.1779 145.106 34.3409 145.32 34.4588C145.542 34.5767 145.841 34.6772 146.215 34.7604C146.534 34.8298 146.836 34.9165 147.12 35.0205C147.411 35.1176 147.647 35.2667 147.827 35.4678C148.015 35.6619 148.108 35.9463 148.108 36.3207C148.115 36.7854 147.938 37.1703 147.578 37.4754C147.224 37.7736 146.742 37.9227 146.132 37.9227ZM151.676 37.9227C151.184 37.9227 150.747 37.8117 150.366 37.5898C149.984 37.361 149.682 37.0454 149.461 36.6432C149.246 36.241 149.138 35.766 149.138 35.2181C149.138 34.6772 149.246 34.2056 149.461 33.8034C149.676 33.3943 149.974 33.0787 150.355 32.8568C150.743 32.628 151.191 32.5136 151.697 32.5136C152.196 32.5136 152.626 32.628 152.987 32.8568C153.354 33.0787 153.635 33.3735 153.829 33.741C154.024 34.1086 154.121 34.5038 154.121 34.9269C154.121 35.0031 154.117 35.0794 154.11 35.1557C154.11 35.232 154.11 35.3187 154.11 35.4158H150.001C150.022 35.811 150.112 36.1404 150.272 36.404C150.438 36.6606 150.643 36.8547 150.886 36.9865C151.135 37.1182 151.399 37.1841 151.676 37.1841C152.037 37.1841 152.338 37.1009 152.581 36.9345C152.824 36.768 153.001 36.5427 153.112 36.2583H153.975C153.836 36.7368 153.569 37.1356 153.174 37.4546C152.786 37.7666 152.286 37.9227 151.676 37.9227ZM151.676 33.2521C151.26 33.2521 150.889 33.3804 150.563 33.637C150.244 33.8866 150.06 34.2542 150.012 34.7396H153.257C153.237 34.275 153.077 33.9109 152.779 33.6474C152.481 33.3839 152.113 33.2521 151.676 33.2521ZM157.162 37.9227C156.551 37.9227 156.066 37.7389 155.705 37.3714C155.345 36.9969 155.164 36.4248 155.164 35.655V32.6384H156.038V35.5614C156.038 36.6363 156.479 37.1737 157.359 37.1737C157.81 37.1737 158.181 37.0142 158.472 36.6952C158.77 36.3693 158.92 35.9081 158.92 35.3117V32.6384H159.793V37.7979H159.003L158.94 36.8721C158.781 37.198 158.542 37.4546 158.223 37.6418C157.911 37.8291 157.557 37.9227 157.162 37.9227ZM166.356 37.9227C165.864 37.9227 165.42 37.8117 165.025 37.5898C164.636 37.361 164.328 37.0454 164.099 36.6432C163.877 36.2341 163.766 35.759 163.766 35.2181C163.766 34.6772 163.877 34.2056 164.099 33.8034C164.328 33.3943 164.636 33.0787 165.025 32.8568C165.42 32.628 165.864 32.5136 166.356 32.5136C166.966 32.5136 167.48 32.6731 167.896 32.9921C168.319 33.3111 168.586 33.7375 168.697 34.2715H167.802C167.733 33.9525 167.563 33.7063 167.292 33.533C167.022 33.3527 166.706 33.2625 166.346 33.2625C166.055 33.2625 165.781 33.3353 165.524 33.481C165.267 33.6266 165.059 33.845 164.9 34.1363C164.74 34.4276 164.661 34.7882 164.661 35.2181C164.661 35.6481 164.74 36.0087 164.9 36.2999C165.059 36.5912 165.267 36.8131 165.524 36.9657C165.781 37.1113 166.055 37.1841 166.346 37.1841C166.706 37.1841 167.022 37.0974 167.292 36.9241C167.563 36.7438 167.733 36.4906 167.802 36.1647H168.697C168.593 36.6848 168.329 37.1078 167.906 37.4338C167.483 37.7597 166.966 37.9227 166.356 37.9227ZM169.917 37.7979V30.3083H170.791V33.5226C170.964 33.2036 171.21 32.9574 171.529 32.784C171.848 32.6037 172.195 32.5136 172.57 32.5136C173.166 32.5136 173.644 32.7008 174.005 33.0753C174.366 33.4428 174.546 34.0115 174.546 34.7812V37.7979H173.683V34.8748C173.683 33.8 173.249 33.2625 172.382 33.2625C171.932 33.2625 171.554 33.4255 171.248 33.7514C170.943 34.0704 170.791 34.5281 170.791 35.1245V37.7979H169.917ZM176.4 31.4942C176.227 31.4942 176.081 31.4387 175.963 31.3277C175.852 31.2098 175.797 31.0642 175.797 30.8908C175.797 30.7244 175.852 30.5857 175.963 30.4747C176.081 30.3638 176.227 30.3083 176.4 30.3083C176.567 30.3083 176.709 30.3638 176.827 30.4747C176.945 30.5857 177.004 30.7244 177.004 30.8908C177.004 31.0642 176.945 31.2098 176.827 31.3277C176.709 31.4387 176.567 31.4942 176.4 31.4942ZM175.963 37.7979V32.6384H176.837V37.7979H175.963ZM178.359 40.0863V32.6384H179.149L179.232 33.4914C179.399 33.2417 179.635 33.0163 179.94 32.8152C180.252 32.6141 180.647 32.5136 181.126 32.5136C181.639 32.5136 182.086 32.6315 182.467 32.8672C182.849 33.103 183.144 33.4255 183.352 33.8346C183.567 34.2438 183.674 34.7084 183.674 35.2285C183.674 35.7486 183.567 36.2133 183.352 36.6224C183.144 37.0246 182.845 37.3436 182.457 37.5794C182.076 37.8083 181.628 37.9227 181.115 37.9227C180.692 37.9227 180.314 37.836 179.981 37.6626C179.655 37.4893 179.406 37.2465 179.232 36.9345V40.0863H178.359ZM181.022 37.1633C181.368 37.1633 181.673 37.0836 181.937 36.9241C182.2 36.7576 182.408 36.5288 182.561 36.2375C182.714 35.9463 182.79 35.6065 182.79 35.2181C182.79 34.8298 182.714 34.49 182.561 34.1987C182.408 33.9074 182.2 33.6821 181.937 33.5226C181.673 33.3561 181.368 33.2729 181.022 33.2729C180.675 33.2729 180.37 33.3561 180.106 33.5226C179.843 33.6821 179.635 33.9074 179.482 34.1987C179.329 34.49 179.253 34.8298 179.253 35.2181C179.253 35.6065 179.329 35.9463 179.482 36.2375C179.635 36.5288 179.843 36.7576 180.106 36.9241C180.37 37.0836 180.675 37.1633 181.022 37.1633Z" fill="#FF5000"/>
<path fill-rule="evenodd" clip-rule="evenodd" d="M46.784 38.9568H5.75133C5.49432 38.9568 5.24783 38.8547 5.06609 38.673L0.283835 33.8907C0.102099 33.709 0 33.4625 0 33.2055V10.9966C0 10.4614 0.433868 10.0276 0.969072 10.0276H15.477C16.0122 10.0276 16.4461 9.5937 16.4461 9.0585V4.45784C16.4461 3.92264 16.8799 3.48877 17.4151 3.48877H30.7342C31.2694 3.48877 31.7033 3.92264 31.7033 4.45784V9.0585C31.7033 9.5937 32.1371 10.0276 32.6724 10.0276H46.784C47.3192 10.0276 47.7531 10.4614 47.7531 10.9966V37.9877C47.7531 38.5229 47.3192 38.9568 46.784 38.9568ZM19.418 8.64051V7.45164C19.418 7.01391 19.7728 6.65906 20.2106 6.65906H27.3438C27.7815 6.65906 28.1364 7.01391 28.1364 7.45164V8.64051C28.1364 9.07824 27.7815 9.43309 27.3438 9.43309H20.2106C19.7728 9.43309 19.418 9.07824 19.418 8.64051Z" fill="#FF5000"/>
<path d="M42.3889 18.8996V21.4101V24.4793V27.5764V29.7988C42.3889 30.2391 42.0319 30.5961 41.5916 30.5961H35.113H28.2029C27.7626 30.5961 27.4057 30.2391 27.4057 29.7988V27.5781V24.4793V21.2521V18.8996C27.4057 18.4593 27.7626 18.1024 28.2029 18.1024H34.8973H41.5916C42.0319 18.1024 42.3889 18.4593 42.3889 18.8996Z" fill="#FBDA82"/>
<path d="M42.3889 18.8996V21.4101V24.4793V27.5764V29.7988C42.3889 30.2391 42.0319 30.5961 41.5916 30.5961H35.113H28.2029C27.7626 30.5961 27.4057 30.2391 27.4057 29.7988V27.5781V24.4793V21.2521V18.8996C27.4057 18.4593 27.7626 18.1024 28.2029 18.1024H34.8973H41.5916C42.0319 18.1024 42.3889 18.4593 42.3889 18.8996Z" stroke="#494949" stroke-width="0.155052"/>
<path d="M42.3889 18.8996V21.4101V24.4793V27.5764V29.7988C42.3889 30.2391 42.0319 30.5961 41.5916 30.5961H35.113H28.2029C27.7626 30.5961 27.4057 30.2391 27.4057 29.7988V27.5781V24.4793V21.2521V18.8996C27.4057 18.4593 27.7626 18.1024 28.2029 18.1024H34.8973H41.5916C42.0319 18.1024 42.3889 18.4593 42.3889 18.8996Z" stroke="url(#paint0_radial_968_331)" stroke-opacity="0.2" stroke-width="0.155052"/>
<path d="M42.3889 18.8994V21.4099V24.4791V27.5762V29.7986C42.3889 30.2389 42.0319 30.5958 41.5916 30.5958H35.113H28.2029C27.7626 30.5958 27.4057 30.2389 27.4057 29.7986V27.5778V24.4791V21.2518V18.8994C27.4057 18.4591 27.7626 18.1021 28.2029 18.1021H34.8973H41.5916C42.0319 18.1021 42.3889 18.4591 42.3889 18.8994Z" stroke="#494949" stroke-width="0.155052"/>
<path d="M42.3889 18.8994V21.4099V24.4791V27.5762V29.7986C42.3889 30.2389 42.0319 30.5958 41.5916 30.5958H35.113H28.2029C27.7626 30.5958 27.4057 30.2389 27.4057 29.7986V27.5778V24.4791V21.2518V18.8994C27.4057 18.4591 27.7626 18.1021 28.2029 18.1021H34.8973H41.5916C42.0319 18.1021 42.3889 18.4591 42.3889 18.8994Z" stroke="url(#paint1_radial_968_331)" stroke-opacity="0.2" stroke-width="0.155052"/>
<defs>
<radialGradient id="paint0_radial_968_331" cx="0" cy="0" r="1" gradientUnits="userSpaceOnUse" gradientTransform="translate(27.3281 18.6177) rotate(45.3165) scale(18.9687 15.8492)">
<stop stop-opacity="0"/>
<stop offset="1" stop-color="white" stop-opacity="0.62"/>
</radialGradient>
<radialGradient id="paint1_radial_968_331" cx="0" cy="0" r="1" gradientUnits="userSpaceOnUse" gradientTransform="translate(27.3281 18.6174) rotate(45.3165) scale(18.9687 15.8492)">
<stop stop-opacity="0"/>
<stop offset="1" stop-color="white" stop-opacity="0.62"/>
</radialGradient>
</defs>
</svg>
